<?xml version="1.0" encoding="utf-8"?>
<!-- Generator: Adobe Illustrator 28.0.0, SVG Export Plug-In . SVG Version: 6.00 Build 0)  -->
<svg version="1.1" id="Layer_1" xmlns="http://www.w3.org/2000/svg" xmlns:xlink="http://www.w3.org/1999/xlink" x="0px" y="0px"
	 viewBox="0 0 20.9 20.9" style="enable-background:new 0 0 20.9 20.9;" xml:space="preserve">
<style type="text/css">
	.st0{fill:none;stroke:#121111;stroke-width:1.5;stroke-linecap:round;stroke-linejoin:round;}
	.st1{fill:#121111;}
</style>
<g>
	<path class="st0" d="M7.7,2.1L1.5,4.7l8.8,4l0,11.2l-8.8-4l0-11.3"/>
	<path class="st0" d="M19,4.7l0,11.2l-8.8,4l0-11.2"/>
	<path class="st0" d="M19,4.7l-8.8,4h0l-8.8-4l6.2-2.5l2.5-1L19,4.7z"/>
	<path class="st1" d="M16.6,10.5c0.7,0,1.2-0.5,1.2-1.2c0-0.7-0.5-1.2-1.2-1.2c-0.7,0-1.2,0.5-1.2,1.2C15.4,9.9,15.9,10.5,16.6,10.5
		z"/>
	<path class="st1" d="M14.7,13.6c0.7,0,1.2-0.5,1.2-1.2c0-0.7-0.5-1.2-1.2-1.2s-1.2,0.5-1.2,1.2C13.5,13.1,14,13.6,14.7,13.6z"/>
	<path class="st1" d="M12.8,17.4c0.7,0,1.2-0.5,1.2-1.2c0-0.7-0.5-1.2-1.2-1.2c-0.7,0-1.2,0.5-1.2,1.2
		C11.6,16.9,12.1,17.4,12.8,17.4z"/>
	<path class="st1" d="M4.6,11.1c0.7,0,1.2-0.5,1.2-1.2c0-0.7-0.5-1.2-1.2-1.2c-0.7,0-1.2,0.5-1.2,1.2C3.4,10.6,3.9,11.1,4.6,11.1z"
		/>
	<path class="st1" d="M7.1,16.2c0.7,0,1.2-0.5,1.2-1.2c0-0.7-0.5-1.2-1.2-1.2c-0.7,0-1.2,0.5-1.2,1.2C5.9,15.6,6.4,16.2,7.1,16.2z"
		/>
	<path class="st1" d="M10.2,5.9c0.7,0,1.2-0.5,1.2-1.2s-0.5-1.2-1.2-1.2C9.6,3.5,9,4,9,4.7S9.6,5.9,10.2,5.9z"/>
</g>
</svg>
