<?xml version="1.0" encoding="utf-8"?>
<!-- Generator: Adobe Illustrator 28.0.0, SVG Export Plug-In . SVG Version: 6.00 Build 0)  -->
<svg version="1.1" id="Layer_1" xmlns="http://www.w3.org/2000/svg" xmlns:xlink="http://www.w3.org/1999/xlink" x="0px" y="0px"
	 viewBox="0 0 20 20" style="enable-background:new 0 0 20 20;" xml:space="preserve">
<style type="text/css">
	.st0{fill:none;stroke:#121111;stroke-width:1.5;stroke-linecap:round;stroke-linejoin:round;}
</style>
<g>
	<path class="st0" d="M10,5.37v13.74"/>
	<path class="st0" d="M16.7,16.49c-0.07,0.05-1.82,1.19-4.03,0.4c-1.93-0.69-2.6-2.27-2.67-2.44h0c-0.07,0.17-0.74,1.75-2.67,2.44
		c-2.21,0.79-3.95-0.35-4.03-0.4c0.43-1.05,1.37-1.92,2.53-2.38c-0.68-0.27-1.37-0.66-2.03-1.25C0.85,10.21,1.58,6.27,1.61,6.1
		c1.82-0.37,3.67-0.02,5.18,0.92C6.73,4.59,7.94,2.27,10,0.89c0.14,0.09,3.31,2.29,3.21,6.13c1.51-0.94,3.36-1.28,5.18-0.92
		c0.03,0.17,0.76,4.11-2.18,6.76c-0.65,0.59-1.35,0.98-2.03,1.25C15.33,14.57,16.27,15.44,16.7,16.49z"/>
	<path class="st0" d="M6.07,10.33L10,12.99"/>
	<path class="st0" d="M13.93,10.33L10,12.99"/>
</g>
</svg>
