<svg width="21" height="23" viewBox="0 0 21 23" fill="none" xmlns="http://www.w3.org/2000/svg">
<path d="M10.498 6.01807V21.3936" stroke="#121111" stroke-width="1.5" stroke-linecap="round" stroke-linejoin="round"/>
<path d="M17.9965 18.4533C17.9134 18.5106 15.964 19.7808 13.4903 18.9C11.3305 18.1314 10.5775 16.363 10.5002 16.1705H10.4968C10.4183 16.363 9.66652 18.1314 7.50556 18.9C5.03296 19.7808 3.08354 18.5106 2.99938 18.4533C3.48503 17.2793 4.53025 16.3068 5.82455 15.7926C5.0648 15.4948 4.288 15.0504 3.55782 14.3941C0.265192 11.4367 1.07726 7.02813 1.11593 6.83571C3.14837 6.42681 5.21948 6.8128 6.91072 7.86196C6.83566 5.14513 8.19251 2.54626 10.4956 1C10.6549 1.10537 14.2034 3.5645 14.0828 7.86311C15.7741 6.81394 17.8463 6.42681 19.8799 6.83571C19.9186 7.02813 20.7306 11.4367 17.4392 14.3941C16.709 15.0504 15.9322 15.4948 15.1724 15.7926C16.4656 16.3068 17.512 17.2793 17.9965 18.4533Z" stroke="#121111" stroke-width="1.5" stroke-linecap="round" stroke-linejoin="round"/>
<path d="M6.10352 11.5605L10.4992 14.5461" stroke="#121111" stroke-width="1.5" stroke-linecap="round" stroke-linejoin="round"/>
<path d="M14.8937 11.5605L10.498 14.5461" stroke="#121111" stroke-width="1.5" stroke-linecap="round" stroke-linejoin="round"/>
</svg>
