<svg width="19" height="20" viewBox="0 0 19 20" fill="none" xmlns="http://www.w3.org/2000/svg">
<path d="M7.07291 1.97412L1.20021 4.37418L9.45146 8.15014L9.44803 18.7107L1.19336 14.9675L1.1985 4.32073" stroke="#121111" stroke-width="1.5" stroke-linecap="round" stroke-linejoin="round"/>
<path d="M17.708 4.37427L17.7132 14.9676L9.46022 18.7108L9.45508 8.15022" stroke="#121111" stroke-width="1.5" stroke-linecap="round" stroke-linejoin="round"/>
<path d="M17.7071 4.37422L9.45413 8.15018H9.45242L1.20117 4.37422L7.07386 1.97416L9.45413 1L17.7071 4.37422Z" stroke="#121111" stroke-width="1.5" stroke-linecap="round" stroke-linejoin="round"/>
<path d="M15.431 9.81581C16.0509 9.81581 16.5535 9.31018 16.5535 8.68647C16.5535 8.06275 16.0509 7.55713 15.431 7.55713C14.8111 7.55713 14.3086 8.06275 14.3086 8.68647C14.3086 9.31018 14.8111 9.81581 15.431 9.81581Z" fill="#121111"/>
<path d="M13.642 12.7963C14.2619 12.7963 14.7644 12.2907 14.7644 11.6669C14.7644 11.0432 14.2619 10.5376 13.642 10.5376C13.0221 10.5376 12.5195 11.0432 12.5195 11.6669C12.5195 12.2907 13.0221 12.7963 13.642 12.7963Z" fill="#121111"/>
<path d="M11.8529 16.3729C12.4728 16.3729 12.9754 15.8673 12.9754 15.2436C12.9754 14.6199 12.4728 14.1143 11.8529 14.1143C11.233 14.1143 10.7305 14.6199 10.7305 15.2436C10.7305 15.8673 11.233 16.3729 11.8529 16.3729Z" fill="#121111"/>
<path d="M4.10487 10.412C4.72477 10.412 5.22731 9.90638 5.22731 9.28266C5.22731 8.65894 4.72477 8.15332 4.10487 8.15332C3.48496 8.15332 2.98242 8.65894 2.98242 9.28266C2.98242 9.90638 3.48496 10.412 4.10487 10.412Z" fill="#121111"/>
<path d="M6.48768 15.1808C7.10759 15.1808 7.61012 14.6752 7.61012 14.0515C7.61012 13.4277 7.10759 12.9221 6.48768 12.9221C5.86777 12.9221 5.36523 13.4277 5.36523 14.0515C5.36523 14.6752 5.86777 15.1808 6.48768 15.1808Z" fill="#121111"/>
<path d="M9.45252 5.51918C10.0724 5.51918 10.575 5.01355 10.575 4.38984C10.575 3.76612 10.0724 3.2605 9.45252 3.2605C8.83261 3.2605 8.33008 3.76612 8.33008 4.38984C8.33008 5.01355 8.83261 5.51918 9.45252 5.51918Z" fill="#121111"/>
</svg>
