<?xml version="1.0" encoding="utf-8"?>
<!-- Generator: Adobe Illustrator 28.0.0, SVG Export Plug-In . SVG Version: 6.00 Build 0)  -->
<svg version="1.1" id="Layer_1" xmlns="http://www.w3.org/2000/svg" xmlns:xlink="http://www.w3.org/1999/xlink" x="0px" y="0px"
	 viewBox="0 0 18.86 18.83" style="enable-background:new 0 0 18.86 18.83;" xml:space="preserve">
<style type="text/css">
	.st0{fill:none;stroke:#121111;stroke-width:1.5;}
	.st1{fill:none;stroke:#121111;stroke-width:1.5;stroke-linecap:square;stroke-linejoin:bevel;}
</style>
<g>
	<polyline class="st0" points="5.08,6.05 9.99,1.2 17.74,9.03 12.83,13.89 	"/>
	<path class="st0" d="M5.22,5.91l7.75,7.83c-0.73,0.69-1.67,1.03-2.62,1.03c-0.4,0-0.8-0.06-1.19-0.2l-0.24-0.08
		c-0.31-0.09-0.72-0.16-1.18-0.08c-1.02,0.18-1.87,0.99-2.24,2.11c-0.04,0.11-0.12,0.25-0.21,0.4c0,0-0.15,0.24-0.35,0.43
		c-0.96,0.95-2.5,0.93-3.44-0.03c-0.95-0.96-0.94-2.49,0.02-3.44c0.25-0.25,0.54-0.42,0.84-0.55c0.07-0.02,0.12-0.04,0.19-0.06
		c1.03-0.39,1.77-1.19,1.95-2.15c0.08-0.45,0.03-0.85-0.06-1.16C4.4,9.81,4.35,9.68,4.31,9.58C3.95,8.32,4.26,6.91,5.22,5.91z"/>
	<line class="st1" x1="15.09" y1="6.35" x2="12.79" y2="8.65"/>
	<line class="st1" x1="12.49" y1="3.76" x2="10.2" y2="6.07"/>
	<line class="st0" x1="14.25" y1="11.98" x2="6.74" y2="4.41"/>
</g>
</svg>
